<?xml version="1.0" encoding="utf-8"?>
<!-- Generator: Adobe Illustrator 16.0.0, SVG Export Plug-In . SVG Version: 6.00 Build 0)  -->
<!DOCTYPE svg PUBLIC "-//W3C//DTD SVG 1.1//EN" "http://www.w3.org/Graphics/SVG/1.1/DTD/svg11.dtd">
<svg version="1.1" id="Layer_1" xmlns="http://www.w3.org/2000/svg" xmlns:xlink="http://www.w3.org/1999/xlink" x="0px" y="0px"
	 width="125px" height="125px" viewBox="0 0 125 125" enable-background="new 0 0 125 125" xml:space="preserve">
<g>
	<circle fill="#FFFFFF" cx="62.5" cy="62.5" r="59.5"/>
	<path fill="#FF488E" d="M62.5,125C28.037,125,0,96.962,0,62.5S28.037,0,62.5,0S125,28.038,125,62.5S96.963,125,62.5,125z M62.5,6
		C31.346,6,6,31.346,6,62.5S31.346,119,62.5,119S119,93.654,119,62.5S93.654,6,62.5,6z"/>
</g>
<circle fill="#FF488E" cx="34.542" cy="47.667" r="8"/>
<circle fill="#FF488E" cx="88.444" cy="47.667" r="8"/>
<path fill="#FF488E" d="M95.34,85.594C95.131,85.05,89.932,72.269,65.16,72l-0.758-0.004c-23.983,0-30.774,13.229-31.052,13.792
	c-0.807,1.637-0.343,3.694,1.056,4.682C34.896,90.816,35.463,91,36.043,91c1.12,0,2.153-0.685,2.693-1.78
	c0.053-0.102,5.491-10.224,25.69-10.224L65.101,79c20.157,0.219,24.563,9.367,24.584,9.407c0.49,1.271,1.6,2.093,2.828,2.093
	c0.473,0,0.929-0.12,1.356-0.355C95.36,89.321,96.006,87.322,95.34,85.594z"/>
</svg>
