<?xml version="1.0" encoding="utf-8"?>
<!-- Generator: Adobe Illustrator 16.0.0, SVG Export Plug-In . SVG Version: 6.00 Build 0)  -->
<!DOCTYPE svg PUBLIC "-//W3C//DTD SVG 1.1//EN" "http://www.w3.org/Graphics/SVG/1.1/DTD/svg11.dtd">
<svg version="1.1" id="Layer_1" xmlns="http://www.w3.org/2000/svg" xmlns:xlink="http://www.w3.org/1999/xlink" x="0px" y="0px"
	 width="125px" height="125px" viewBox="0 0 125 125" enable-background="new 0 0 125 125" xml:space="preserve">
<g>
	<circle fill="#FFFFFF" cx="62.5" cy="62.5" r="59.5"/>
	<path fill="#1DC71F" d="M62.5,125C28.038,125,0,96.962,0,62.5S28.038,0,62.5,0S125,28.038,125,62.5S96.962,125,62.5,125z M62.5,6
		C31.346,6,6,31.346,6,62.5S31.346,119,62.5,119S119,93.654,119,62.5S93.654,6,62.5,6z"/>
</g>
<circle fill="#1DC71F" cx="35.583" cy="47.667" r="8"/>
<circle fill="#1DC71F" cx="89.486" cy="47.667" r="8"/>
<path fill="#1DC71F" d="M28.333,71.42c0,0,6.162,26.887,33.607,29.127c0,0,29.31,0.453,34.727-29.127
	C96.667,71.42,65.917,87.666,28.333,71.42z"/>
</svg>
